<?xml version="1.0" standalone="no"?>
<!DOCTYPE svg PUBLIC "-//W3C//DTD SVG 20010904//EN"
 "http://www.w3.org/TR/2001/REC-SVG-20010904/DTD/svg10.dtd">
<svg version="1.0" xmlns="http://www.w3.org/2000/svg"
 width="1024.000000pt" height="1024.000000pt" viewBox="0 0 1024.000000 1024.000000"
 preserveAspectRatio="xMidYMid meet">

<g transform="translate(0.000000,1024.000000) scale(0.100000,-0.100000)"
fill="#000000" stroke="none">
<path d="M1955 7390 c3 -6 53 -10 111 -10 l104 0 116 -155 c63 -85 112 -159
109 -165 -4 -6 -2 -9 5 -8 6 2 27 -19 48 -47 20 -27 30 -44 21 -38 -9 7 -20 9
-24 5 -5 -4 -5 -2 -2 4 4 7 -2 23 -13 35 -11 13 -20 20 -19 14 4 -31 -2 -38
-16 -19 -14 18 -14 18 -10 -3 4 -23 -9 -28 -62 -26 -7 1 -11 -3 -8 -7 9 -14
-6 -40 -19 -33 -8 5 -8 3 0 -8 6 -8 64 -88 129 -179 65 -91 137 -190 160 -220
47 -62 374 -516 619 -861 89 -125 181 -250 206 -278 l45 -52 279 3 278 3 -151
195 c-84 107 -348 456 -588 775 -240 319 -441 580 -447 580 -6 0 -10 7 -8 16
1 9 -8 24 -20 35 -12 10 -18 14 -15 8 10 -17 -20 -38 -53 -39 -15 0 -34 -6
-41 -12 -18 -13 -68 -8 -84 9 -11 12 -267 349 -329 431 l-28 38 120 -3 c84 -2
118 0 112 8 -12 14 -534 18 -525 4z m546 -457 c13 -16 12 -17 -3 -4 -17 13
-22 21 -14 21 2 0 10 -8 17 -17z m140 -60 c13 -16 12 -17 -3 -4 -10 7 -18 15
-18 17 0 8 8 3 21 -13z"/>
<path d="M2820 7392 c0 -5 12 -19 27 -33 20 -17 23 -18 10 -3 -9 11 -17 22
-17 25 0 2 192 3 427 1 l428 -3 23 -22 c40 -41 31 -126 -16 -144 -20 -8 56
-11 309 -12 l336 -1 65 -82 c113 -143 369 -459 457 -563 46 -55 206 -246 355
-424 149 -178 280 -334 292 -348 l21 -25 34 44 c18 24 133 162 254 308 121
146 270 326 330 400 173 214 508 632 530 663 l20 27 497 -2 496 -3 -110 -130
c-61 -71 -227 -265 -368 -430 -141 -165 -358 -424 -482 -575 -197 -241 -390
-467 -588 -691 l-58 -66 76 -95 c42 -52 226 -273 407 -491 649 -778 975 -1176
975 -1191 0 -3 -222 -6 -492 -6 l-493 0 -79 103 c-93 119 -405 512 -590 742
-70 88 -181 226 -245 307 -64 81 -121 147 -127 148 -6 0 -31 -26 -56 -58 -24
-32 -138 -167 -251 -301 -114 -133 -242 -286 -285 -338 -42 -53 -142 -175
-222 -272 -80 -97 -172 -211 -205 -254 l-60 -76 -487 -1 c-269 0 -488 3 -488
6 0 7 13 22 372 429 217 247 503 574 891 1019 163 187 277 323 277 330 0 8
-1056 1277 -1220 1466 -31 36 -93 110 -137 165 -73 90 -165 195 -137 156 13
-18 15 -53 3 -46 -4 3 -22 -11 -40 -30 -19 -19 -39 -35 -46 -35 -7 0 -13 -7
-13 -15 0 -8 -5 -15 -11 -15 -5 0 -8 -4 -5 -9 4 -5 1 -11 -4 -13 -6 -2 10 -31
36 -66 26 -35 43 -66 39 -70 -4 -4 -33 21 -64 56 l-57 63 -42 -42 c-24 -23
-47 -38 -51 -33 -5 5 -81 104 -169 219 -88 116 -175 226 -192 245 -17 19 1 -8
41 -60 266 -351 343 -449 350 -445 4 3 11 0 15 -6 5 -8 3 -9 -6 -4 -7 4 -11 4
-9 -2 2 -6 168 -225 369 -487 201 -262 435 -568 520 -680 85 -112 176 -229
203 -261 l47 -57 -36 -51 c-20 -28 -82 -107 -138 -177 -55 -70 -164 -207 -241
-305 -77 -97 -193 -242 -257 -321 -64 -79 -147 -183 -185 -231 -37 -49 -167
-212 -288 -363 -122 -151 -265 -330 -318 -398 l-97 -122 902 1 903 0 145 171
c80 94 154 183 165 199 11 16 27 28 35 26 16 -2 61 -57 217 -259 l105 -138
174 0 175 0 -53 63 c-79 93 -433 536 -436 546 -2 5 65 90 148 190 l151 181 82
-104 c300 -381 692 -868 701 -872 6 -2 446 -3 979 -2 l967 3 -529 663 c-292
364 -565 704 -608 755 -43 52 -118 145 -168 208 -49 63 -129 162 -177 221 -48
58 -88 109 -88 111 0 3 35 48 78 99 259 313 930 1155 1182 1483 117 151 384
487 404 508 16 16 -39 17 -938 17 l-955 0 -96 -120 c-53 -67 -93 -124 -91
-129 3 -5 -4 -17 -17 -27 l-22 -19 20 25 20 25 -23 -19 c-12 -11 -20 -26 -17
-33 2 -8 1 -12 -4 -9 -5 3 -53 -46 -106 -109 -53 -63 -103 -115 -110 -115 -12
0 -184 205 -357 426 l-82 104 -194 0 -194 0 17 -27 c27 -42 189 -249 409 -523
108 -134 195 -247 194 -251 -2 -4 -57 -73 -123 -154 -66 -81 -123 -152 -127
-158 -14 -22 -68 40 -474 538 -121 149 -275 339 -343 423 l-122 152 -885 0
c-486 0 -884 -4 -884 -8z m3607 -261 c-59 -61 -272 -305 -432 -496 -89 -106
-148 -176 -409 -484 l-70 -82 -25 33 c-15 18 -60 71 -101 118 -42 47 -94 108
-116 135 -22 28 -108 131 -190 231 -82 99 -207 252 -279 340 -71 87 -152 182
-179 211 -27 29 -46 56 -43 60 11 10 55 -18 74 -46 20 -31 469 -581 597 -731
49 -58 110 -129 135 -159 110 -130 124 -146 130 -148 3 -1 62 66 131 149 69
83 167 200 219 262 51 61 144 174 206 251 117 145 350 415 369 427 5 4 16 2
24 -4 10 -9 2 -22 -41 -67z m-657 -61 c46 -58 108 -134 138 -169 58 -69 65
-97 9 -34 -68 75 -288 366 -245 323 8 -8 53 -62 98 -120z m1993 -143 c3 -7
-24 -49 -60 -93 -36 -43 -74 -90 -84 -103 -18 -22 -21 -23 -35 -9 -14 13 -8
23 51 93 36 42 73 88 82 101 17 26 38 31 46 11z m-4473 -107 c0 -5 -2 -10 -4
-10 -3 0 -8 5 -11 10 -3 6 -1 10 4 10 6 0 11 -4 11 -10z m370 -240 c41 -52
124 -158 186 -235 61 -77 175 -225 253 -329 79 -104 179 -235 224 -291 45 -57
118 -149 162 -206 44 -57 102 -127 128 -156 29 -33 45 -59 40 -66 -4 -7 -129
-165 -278 -352 -254 -319 -355 -446 -713 -899 -169 -213 -178 -224 -192 -210
-13 13 14 52 160 234 109 135 479 601 823 1034 85 106 147 193 144 200 -6 16
-148 201 -337 441 -69 88 -168 216 -220 285 -52 69 -155 202 -229 297 -279
352 -273 344 -260 360 15 17 9 23 109 -107z m3870 30 c12 -8 12 -11 -1 -27 -9
-10 -132 -164 -274 -343 -329 -413 -673 -841 -726 -902 l-41 -46 74 -89 c41
-48 125 -153 188 -233 63 -80 218 -275 345 -435 181 -227 472 -594 558 -703
12 -15 -10 -35 -25 -26 -8 5 -108 128 -222 274 -104 133 -686 863 -855 1073
-61 76 -111 142 -111 145 1 4 13 21 28 38 74 84 336 400 397 479 98 126 334
422 478 599 67 82 130 162 140 178 21 31 25 32 47 18z m-1859 -2301 c85 -102
195 -234 244 -294 142 -172 265 -316 318 -373 37 -40 47 -56 38 -65 -8 -8 -14
-7 -24 3 -51 58 -174 203 -436 518 -166 199 -305 362 -309 361 -4 0 -32 -30
-62 -67 -54 -65 -154 -182 -430 -500 -126 -145 -160 -178 -160 -154 0 22 646
765 661 760 3 -2 76 -87 160 -189z m-846 -619 c3 -5 -13 -31 -37 -57 -23 -27
-44 -50 -45 -52 -2 -3 -8 0 -15 7 -8 8 -1 24 27 61 35 49 57 62 70 41z"/>
<path d="M3320 6946 c0 -2 8 -10 18 -17 15 -13 16 -12 3 4 -13 16 -21 21 -21
13z"/>
<path d="M2293 5418 c-30 -34 -283 -375 -283 -382 0 -3 173 -6 385 -6 l385 0
19 23 c40 47 141 175 141 178 0 2 -69 3 -152 1 -84 -2 -173 -1 -197 3 -43 7
-43 7 -20 20 70 40 136 66 197 80 87 19 255 28 246 13 -5 -7 -2 -8 5 -4 7 5
10 10 7 13 -2 3 12 19 31 36 l37 32 -85 7 c-46 3 -222 6 -390 7 -305 1 -306 1
-326 -21z"/>
<path d="M7025 5410 c-18 -20 -17 -20 316 -21 283 -1 640 -12 589 -17 -17 -2
-25 -42 -9 -42 5 0 9 -4 9 -10 0 -5 8 -19 18 -30 9 -11 17 -26 17 -33 0 -7 16
-15 35 -18 19 -4 -125 -8 -320 -9 -195 -1 -458 -5 -583 -9 l-228 -6 45 -64
c25 -35 57 -77 71 -93 l27 -30 531 4 c518 3 532 3 548 23 41 49 110 137 177
226 39 52 81 104 92 114 11 10 20 22 20 27 0 4 -301 8 -668 8 -656 0 -669 0
-687 -20z"/>
<path d="M3399 5167 c-46 -59 -420 -555 -884 -1172 -252 -335 -469 -622 -483
-637 l-26 -28 261 0 261 0 309 388 c170 213 397 497 504 632 107 135 230 289
272 343 43 53 75 97 70 96 -19 -3 -34 2 -29 10 4 5 1 22 -5 38 -7 15 -11 39
-10 52 0 13 -4 30 -10 37 -6 7 -10 21 -9 31 1 10 1 21 0 26 -1 4 -3 10 -4 15
-3 18 -18 32 -28 26 -7 -4 -8 -2 -4 5 4 6 12 8 18 5 7 -4 8 -2 4 4 -4 6 18 45
49 87 l56 75 -143 0 -143 0 -26 -33z m181 -160 c0 -2 -10 -12 -22 -23 l-23
-19 19 23 c18 21 26 27 26 19z"/>
<path d="M3699 4813 c-13 -16 -12 -17 4 -4 16 13 21 21 13 21 -2 0 -10 -8 -17
-17z"/>
<path d="M4834 2801 l-62 -6 -92 -107 c-51 -60 -97 -108 -101 -108 -5 0 -50
49 -101 110 l-93 109 -113 1 -113 0 143 -161 c79 -89 147 -167 152 -173 9 -13
2 -22 -74 -110 -219 -251 -228 -263 -207 -260 12 1 59 3 104 3 l82 1 102 125
c56 69 105 125 108 123 4 -2 55 -56 115 -121 59 -64 116 -122 126 -127 10 -6
60 -10 109 -10 l91 0 -96 113 c-53 61 -123 142 -155 179 -32 37 -59 71 -59 76
0 6 39 54 88 109 48 54 116 131 151 171 l63 72 -53 -2 c-30 -1 -82 -4 -115 -7z"/>
<path d="M5270 2469 l5 -321 28 -24 c28 -24 29 -24 273 -24 l244 0 0 70 0 70
-195 0 -195 0 0 275 0 275 -82 0 -83 0 5 -321z"/>
<path d="M6065 2782 c-32 -11 -51 -25 -64 -49 -12 -24 -16 -281 -3 -298 4 -6
20 -21 36 -33 26 -20 40 -22 175 -23 80 -1 173 -4 206 -8 l60 -6 3 -50 c5 -75
6 -75 -264 -75 -156 0 -235 -4 -239 -11 -11 -16 24 -97 48 -114 31 -22 484
-22 527 0 59 30 72 65 74 188 1 146 -4 163 -57 187 -36 17 -66 20 -229 20
l-188 0 0 70 0 70 164 0 165 0 3 -32 3 -33 69 -3 68 -3 -4 81 c-3 75 -6 84
-31 106 -28 24 -29 24 -265 23 -130 -1 -246 -4 -257 -7z"/>
</g>
</svg>
