<?xml version="1.0" standalone="no"?>
<!DOCTYPE svg PUBLIC "-//W3C//DTD SVG 20010904//EN"
 "http://www.w3.org/TR/2001/REC-SVG-20010904/DTD/svg10.dtd">
<svg version="1.0" xmlns="http://www.w3.org/2000/svg"
 width="820.000000pt" height="820.000000pt" viewBox="0 0 820.000000 820.000000"
 preserveAspectRatio="xMidYMid meet">

<g transform="translate(0.000000,820.000000) scale(0.100000,-0.100000)"
fill="#000000" stroke="none">
<path d="M4731 7921 c-63 -102 -188 -301 -276 -441 -89 -140 -233 -367 -320
-505 -184 -292 -275 -433 -595 -920 -130 -198 -288 -438 -350 -533 -133 -203
-102 -192 -297 -106 -70 31 -209 90 -308 131 -99 41 -231 97 -292 125 -62 27
-118 46 -124 42 -7 -4 -9 -3 -6 3 4 6 -7 16 -25 22 -42 15 -50 12 -13 -4 24
-11 26 -14 10 -15 -14 0 -21 -7 -22 -21 -1 -14 3 -19 12 -15 10 3 7 -8 -9 -32
-18 -29 -22 -42 -14 -57 8 -13 7 -16 -1 -11 -7 5 -11 -3 -11 -24 0 -18 -4 -29
-10 -25 -5 3 -10 0 -10 -9 0 -8 6 -17 13 -19 8 -4 8 -8 2 -14 -5 -4 -12 -17
-13 -28 -2 -11 -9 -23 -14 -26 -6 -4 -5 -8 3 -11 12 -4 11 -9 0 -34 -14 -28
-17 -35 -20 -51 -1 -5 -5 -2 -10 5 -6 9 -8 5 -8 -15 -1 -75 -6 -89 -35 -106
-19 -11 -27 -21 -21 -29 4 -7 7 -27 8 -44 0 -31 -15 -38 -45 -19 -25 15 148
-173 484 -528 177 -186 356 -378 400 -425 43 -48 132 -142 197 -209 66 -67
119 -128 119 -135 -1 -20 -316 -441 -592 -791 -124 -156 -821 -1085 -974
-1296 -203 -283 -478 -687 -842 -1242 l-173 -264 83 89 c200 215 298 309 769
732 302 271 358 321 549 485 400 344 511 439 695 595 288 243 436 370 618 529
88 77 184 160 212 185 29 25 126 110 216 190 209 186 285 247 332 271 20 11
37 23 37 27 0 22 -240 412 -253 412 -13 0 -73 -55 -772 -705 -83 -77 -220
-203 -305 -280 -85 -77 -213 -194 -284 -260 -358 -332 -394 -360 -154 -122
273 272 448 477 741 870 112 149 320 422 461 606 142 184 264 345 272 357 14
20 7 33 -94 200 -194 320 -316 499 -403 589 -45 47 -79 85 -75 85 3 0 41 -17
84 -39 78 -39 421 -171 445 -171 8 0 21 26 31 58 10 31 47 138 83 237 36 99
152 439 258 755 106 316 254 748 328 960 304 865 376 1068 401 1134 14 38 25
70 24 71 -2 1 -54 -81 -117 -184z m-840 -1992 c-6 -13 -38 -118 -71 -234 -74
-260 -199 -590 -216 -572 -3 2 9 83 26 178 33 189 35 209 21 209 -14 0 -145
-102 -233 -180 -56 -50 -65 -56 -39 -25 90 109 201 250 350 443 90 117 166
211 168 209 2 -3 -1 -15 -6 -28z m-1646 -616 c223 -198 1224 -1216 1293 -1314
13 -18 13 -23 0 -36 -14 -13 -46 18 -284 269 -147 156 -464 482 -703 725 -240
243 -437 447 -439 453 -9 25 21 3 133 -97z"/>
<path d="M3514 7835 c7 -65 33 -440 42 -620 8 -143 8 -144 32 -5 6 36 28 154
48 262 l36 197 -45 53 c-24 29 -61 78 -82 108 l-37 55 6 -50z"/>
<path d="M7167 7403 c-124 -148 -267 -317 -318 -377 -148 -175 -409 -520 -409
-540 0 -4 26 7 58 23 43 22 71 47 114 103 32 40 88 112 125 159 92 116 319
421 498 669 81 113 152 211 158 218 5 6 7 12 4 12 -3 0 -107 -120 -230 -267z"/>
<path d="M2410 7230 c0 -5 -21 -47 -46 -92 -25 -45 -43 -90 -41 -99 3 -10 68
-111 144 -226 77 -114 263 -394 414 -621 l273 -413 13 35 c11 34 9 42 -82 230
-114 236 -256 494 -624 1133 -34 59 -51 77 -51 53z"/>
<path d="M2806 7150 c-43 -57 -44 -55 31 -139 l39 -44 42 73 42 73 -47 43
c-27 24 -53 43 -58 44 -6 0 -28 -23 -49 -50z"/>
<path d="M3631 6791 c-1 -66 2 -122 7 -125 5 -3 28 22 51 55 l42 61 -43 64
c-24 35 -46 64 -49 64 -3 0 -7 -54 -8 -119z"/>
<path d="M5225 6759 c-45 -39 -209 -238 -203 -245 3 -2 43 37 89 88 46 51 102
112 123 136 48 52 42 65 -9 21z"/>
<path d="M4877 6683 c-15 -28 -91 -163 -170 -300 -160 -274 -191 -333 -180
-333 13 0 316 348 346 397 8 13 39 262 34 276 -2 7 -16 -11 -30 -40z"/>
<path d="M624 6705 c-8 -20 3 -48 18 -43 6 2 16 12 22 21 8 13 7 20 -4 27 -21
14 -30 12 -36 -5z"/>
<path d="M2997 6602 c-22 -24 -21 -31 9 -67 l25 -30 29 34 30 35 -22 23 c-26
28 -49 29 -71 5z"/>
<path d="M7024 6569 c-16 -17 -89 -76 -162 -130 -103 -77 -140 -112 -169 -157
-21 -31 -55 -79 -77 -106 -39 -48 -40 -48 -11 -33 17 8 50 20 74 27 51 13 61
24 178 178 48 64 115 145 147 179 32 35 57 66 54 68 -2 3 -18 -9 -34 -26z"/>
<path d="M4531 6426 c-9 -10 -8 -16 4 -26 19 -16 41 1 32 24 -8 20 -21 20 -36
2z"/>
<path d="M6280 6359 c-120 -91 -415 -351 -424 -375 -10 -26 26 1 209 158 211
181 294 257 280 258 -5 0 -35 -19 -65 -41z"/>
<path d="M2523 6374 c-7 -20 17 -37 34 -23 15 13 6 39 -13 39 -8 0 -17 -7 -21
-16z"/>
<path d="M1712 6311 c-23 -14 -10 -46 18 -46 16 0 26 6 28 19 3 16 -12 36 -28
36 -3 0 -11 -4 -18 -9z"/>
<path d="M3107 6313 c-11 -10 -8 -41 4 -49 16 -9 41 20 33 39 -6 17 -25 22
-37 10z"/>
<path d="M4849 6297 c-61 -47 -91 -79 -81 -89 8 -8 28 6 69 45 32 31 51 57 43
56 -8 0 -22 -5 -31 -12z"/>
<path d="M2194 6196 c11 -9 24 -16 30 -16 12 0 7 5 -24 19 -24 11 -24 11 -6
-3z"/>
<path d="M6380 6165 c0 -27 1 -28 24 -19 24 9 20 44 -4 44 -15 0 -20 -7 -20
-25z"/>
<path d="M3242 6121 c-18 -11 -12 -41 10 -55 24 -15 53 13 43 43 -7 22 -30 27
-53 12z"/>
<path d="M2106 6033 c11 -44 53 -105 67 -97 39 23 39 27 -10 76 -54 55 -66 59
-57 21z"/>
<path d="M4367 5942 c-20 -21 -37 -41 -37 -46 0 -10 62 -96 69 -96 3 0 25 22
48 49 l42 48 -43 42 -42 41 -37 -38z"/>
<path d="M2642 5801 c-19 -11 -11 -45 11 -49 10 -2 25 2 33 9 13 10 12 14 -2
30 -19 21 -23 22 -42 10z"/>
<path d="M4201 5645 c-17 -20 -31 -42 -31 -49 0 -13 51 -85 60 -85 3 0 22 22
44 50 l39 50 -34 35 c-18 19 -36 34 -40 34 -4 0 -21 -16 -38 -35z"/>
<path d="M2889 5654 c-9 -11 -10 -20 -2 -32 14 -23 47 -27 63 -7 11 13 10 19
-5 35 -22 24 -38 25 -56 4z"/>
<path d="M6670 5636 c-30 -13 -54 -27 -53 -32 1 -5 15 -39 31 -76 l30 -66 59
24 c32 13 64 24 71 24 18 0 15 13 -20 85 -19 39 -38 65 -48 65 -8 -1 -40 -11
-70 -24z"/>
<path d="M675 5563 c6 -6 46 -39 90 -74 92 -73 241 -204 336 -296 66 -64 67
-65 169 -89 57 -13 107 -23 112 -22 4 2 -34 29 -85 61 -50 32 -150 99 -222
149 -190 133 -412 283 -400 271z"/>
<path d="M5080 5404 c-8 -3 -78 -101 -155 -219 -596 -913 -810 -1215 -861
-1215 -19 0 -18 -6 15 -53 15 -23 67 -109 113 -192 137 -240 347 -583 382
-622 27 -31 14 -39 -31 -21 -331 135 -438 178 -444 178 -13 0 -65 -108 -116
-239 -25 -64 -94 -221 -154 -348 -60 -128 -109 -235 -109 -237 0 -2 -23 -53
-51 -113 -28 -59 -68 -146 -89 -193 -21 -47 -83 -177 -138 -290 -310 -640
-409 -853 -555 -1195 -64 -148 -143 -330 -176 -404 -34 -74 -61 -136 -61 -140
0 -3 43 67 96 154 99 164 314 496 430 665 288 416 492 696 913 1255 128 170
305 406 394 523 148 198 162 213 185 207 14 -3 138 -54 276 -112 370 -155 920
-380 1541 -630 171 -68 316 -127 323 -130 8 -3 -8 16 -35 43 -26 27 -109 117
-183 199 -74 83 -166 184 -205 225 -38 41 -126 138 -195 214 -232 259 -363
400 -721 776 -303 318 -606 626 -532 540 16 -19 21 -34 18 -60 -4 -29 -3 -31
5 -12 12 27 30 29 37 2 3 -11 12 -20 19 -20 8 0 14 -3 15 -7 0 -5 2 -19 5 -32
3 -18 1 -22 -11 -17 -8 3 -15 1 -15 -3 0 -5 -10 -7 -22 -4 -22 5 -22 5 -6 -12
14 -15 20 -16 32 -5 9 7 16 9 16 4 1 -5 7 2 15 16 13 23 14 23 15 5 0 -12 5
-26 12 -33 9 -9 9 -12 0 -12 -7 0 -12 5 -12 10 0 15 -17 12 -35 -6 -15 -15
-18 -15 -37 2 -11 11 -24 29 -29 42 -5 12 -15 22 -24 22 -8 0 -15 5 -15 10 0
6 -12 10 -26 10 -23 0 -25 2 -14 15 11 13 10 14 -4 9 -10 -4 -18 0 -22 10 -3
9 -10 13 -15 10 -5 -3 -9 2 -9 10 0 9 -8 16 -19 16 -10 0 -24 7 -31 15 -7 8
-19 15 -26 15 -19 0 -18 10 4 27 16 13 15 14 -9 10 -22 -3 -25 -1 -21 17 5 18
3 19 -10 8 -14 -11 -16 -11 -14 0 1 7 5 19 10 26 7 12 4 12 -14 2 -18 -10 -24
-9 -31 1 -4 8 -3 16 3 20 14 9 2 39 -16 39 -13 0 -26 19 -32 49 -1 7 -12 23
-24 36 l-21 22 25 -4 c18 -4 26 -13 30 -37 6 -29 46 -70 46 -46 0 5 -4 10 -10
10 -5 0 -10 9 -10 20 0 11 -4 20 -10 20 -5 0 -10 14 -10 30 0 17 5 30 11 30 7
0 9 12 7 32 -4 26 -3 28 7 15 17 -23 28 -21 15 2 -7 14 -6 21 3 24 9 3 7 9 -6
24 -18 21 -14 35 9 26 8 -3 14 0 14 6 0 6 -7 11 -16 11 -9 0 -14 6 -11 13 2 6
11 11 19 9 9 -1 18 4 21 12 4 10 0 12 -14 9 -10 -3 -19 0 -19 6 0 6 9 11 20
11 13 0 20 7 20 19 0 11 6 22 13 25 6 4 2 4 -10 2 -16 -3 -20 0 -15 13 3 9 10
19 16 23 7 5 7 8 -1 8 -7 0 -13 5 -13 11 0 5 4 7 10 4 5 -3 12 5 16 19 3 14
12 30 20 37 8 6 14 22 14 35 0 13 4 24 9 24 5 0 13 14 16 32 4 17 18 52 31 76
13 25 22 47 19 50 -2 3 4 17 15 32 11 16 20 31 20 34 0 3 13 28 30 56 16 27
27 50 24 50 -3 0 5 14 17 31 12 17 32 49 44 72 12 23 41 76 64 117 42 74 62
131 45 129 -5 -1 -16 -3 -24 -5z m-430 -1072 c0 -5 -7 -9 -15 -9 -8 0 -12 4
-9 9 3 4 9 8 15 8 5 0 9 -4 9 -8z m-40 -92 c0 -5 -4 -10 -10 -10 -5 0 -10 5
-10 10 0 6 5 10 10 10 6 0 10 -4 10 -10z m-112 -207 c43 -43 204 -208 358
-368 435 -452 428 -445 693 -737 13 -15 22 -30 20 -33 -6 -5 -870 860 -993
993 -99 108 -176 201 -176 213 0 21 24 5 98 -68z m-237 -957 c-5 -13 -34 -72
-64 -132 -30 -60 -57 -119 -61 -131 -7 -22 -7 -22 38 -7 76 26 82 16 29 -49
-85 -105 -107 -132 -194 -248 -135 -179 -207 -283 -303 -434 -103 -162 -158
-245 -163 -245 -2 0 -2 3 0 8 178 314 363 638 404 707 39 66 49 91 39 93 -8 2
-24 -2 -35 -7 -28 -15 -61 -14 -61 2 0 8 10 22 21 33 12 10 64 79 117 153 144
202 201 268 239 280 1 1 -2 -10 -6 -23z"/>
<path d="M4064 5330 c0 -13 4 -16 10 -10 7 7 7 13 0 20 -6 6 -10 3 -10 -10z"/>
<path d="M6112 5319 c3 -8 20 -47 38 -87 40 -88 50 -73 -144 -214 -77 -56
-206 -150 -286 -208 -80 -59 -173 -126 -208 -151 -35 -24 -58 -45 -53 -47 13
-4 192 103 559 335 155 98 307 193 337 211 l55 33 0 65 0 64 -73 0 c-41 0
-109 3 -152 7 -65 5 -77 4 -73 -8z"/>
<path d="M7080 5221 c-124 -76 -239 -140 -437 -245 -89 -47 -182 -99 -207
-114 l-46 -30 31 -6 c25 -5 48 5 133 54 256 147 654 402 624 400 -2 0 -46 -27
-98 -59z"/>
<path d="M1705 4855 c66 -63 131 -117 145 -121 14 -3 37 -10 51 -15 35 -14
161 -7 166 8 4 11 -448 243 -473 243 -5 0 45 -52 111 -115z"/>
<path d="M3799 4813 c12 -24 31 -39 31 -25 0 5 -10 17 -21 28 -22 19 -22 19
-10 -3z"/>
<path d="M1477 4743 l-36 -37 21 -29 c11 -16 26 -31 34 -34 13 -5 84 43 84 56
-1 3 -16 23 -34 44 l-34 38 -35 -38z"/>
<path d="M3835 4760 c3 -5 8 -10 11 -10 2 0 4 5 4 10 0 6 -5 10 -11 10 -5 0
-7 -4 -4 -10z"/>
<path d="M3929 4620 c45 -69 86 -132 91 -140 8 -12 24 0 84 65 41 44 72 82 70
84 -2 2 -12 -3 -22 -12 -10 -10 -28 -17 -39 -17 -11 0 -35 -14 -52 -32 -30
-31 -31 -31 -51 -13 -11 10 -22 27 -26 39 -4 11 -36 50 -72 86 l-65 65 82
-125z"/>
<path d="M6235 4699 c-44 -21 -86 -39 -92 -39 -7 0 -13 -4 -13 -10 0 -10 67
17 155 63 77 40 40 30 -50 -14z"/>
<path d="M1920 4694 c0 -9 173 -204 181 -204 11 0 123 43 132 51 5 4 -13 14
-40 23 -26 9 -68 28 -93 43 -161 94 -180 103 -180 87z"/>
<path d="M5961 4664 c-12 -20 -20 -38 -18 -40 5 -6 67 54 67 65 0 24 -29 9
-49 -25z"/>
<path d="M5101 4537 c-25 -23 -48 -43 -53 -43 -4 -1 -12 -2 -17 -3 -5 0 -12
-8 -15 -17 -5 -14 -4 -15 9 -4 13 11 14 10 9 -3 -6 -18 -34 -31 -34 -17 0 6
-5 10 -12 10 -9 0 -9 -3 0 -12 15 -15 16 -32 2 -23 -6 4 -10 3 -9 -2 3 -20 -2
-24 -17 -12 -14 11 -18 10 -30 -6 -8 -10 -14 -24 -14 -29 0 -6 5 -4 10 4 8 13
10 12 10 -4 0 -14 -5 -17 -21 -13 -31 8 -74 -36 -59 -61 11 -16 11 -16 6 1 -3
9 -1 17 4 17 16 0 20 -18 6 -29 -11 -9 -18 -8 -31 5 -14 15 -18 15 -26 3 -5
-8 -8 -23 -8 -34 l0 -20 9 20 c6 13 9 15 9 5 1 -13 2 -13 11 0 5 8 10 11 10 6
0 -18 -32 -45 -48 -39 -10 4 -13 2 -8 -5 5 -8 1 -10 -10 -5 -14 5 -16 3 -9
-13 4 -10 8 -29 9 -41 1 -12 5 -25 9 -29 4 -5 5 0 1 10 -6 16 -5 17 15 6 22
-11 22 -12 4 -26 -17 -15 -17 -15 2 -5 17 8 27 3 60 -27 22 -20 14 -10 -17 23
-54 56 -70 85 -50 85 5 0 73 70 151 155 197 215 238 264 142 172z m-194 -212
c-18 -19 -29 -7 -16 17 8 15 13 17 19 8 4 -7 3 -19 -3 -25z"/>
<path d="M1165 4540 c11 -5 106 -39 210 -75 105 -36 210 -74 235 -84 67 -28
643 -215 727 -237 40 -10 75 -15 79 -11 4 4 5 9 3 11 -7 6 -1042 345 -1129
369 -107 30 -153 40 -125 27z"/>
<path d="M5268 4442 c-33 -20 -34 -29 -7 -58 24 -26 52 -22 74 12 13 20 13 27
3 44 -15 24 -33 24 -70 2z"/>
<path d="M2330 4372 c0 -26 132 -123 147 -109 5 5 -130 117 -141 117 -3 0 -6
-4 -6 -8z"/>
<path d="M5425 4240 c-93 -16 -203 -34 -243 -41 -41 -6 -70 -15 -65 -19 4 -4
89 -31 188 -60 242 -69 434 -130 466 -146 23 -12 54 -8 260 31 128 25 237 45
241 45 5 0 8 4 8 8 0 5 -25 14 -55 21 -31 7 -99 28 -151 46 -112 41 -406 131
-449 139 -16 2 -106 -8 -200 -24z"/>
<path d="M4695 4250 c-3 -5 -1 -10 4 -10 6 0 11 5 11 10 0 6 -2 10 -4 10 -3 0
-8 -4 -11 -10z"/>
<path d="M4705 4179 c-10 -15 3 -25 16 -12 7 7 7 13 1 17 -6 3 -14 1 -17 -5z"/>
<path d="M2620 4091 c0 -4 22 -29 50 -55 78 -73 79 -56 1 27 -34 36 -51 46
-51 28z"/>
<path d="M1910 4020 c0 -5 53 -67 118 -137 64 -71 134 -148 154 -172 l37 -43
218 41 c120 23 278 52 352 64 130 21 167 37 119 51 -13 4 -210 44 -438 91
-228 46 -444 91 -480 99 -77 19 -80 19 -80 6z"/>
<path d="M5212 3990 c23 -32 27 -34 52 -24 25 10 19 24 -19 40 -51 21 -58 17
-33 -16z"/>
<path d="M4978 3928 c5 -5 16 -8 23 -6 8 3 3 7 -10 11 -17 4 -21 3 -13 -5z"/>
<path d="M5636 3669 c-17 -25 -12 -43 19 -63 21 -14 24 -13 38 2 15 16 14 20
-5 50 -24 38 -32 39 -52 11z"/>
<path d="M2648 3559 c-23 -13 -23 -32 1 -53 16 -15 22 -15 40 -4 19 12 38 45
29 53 -10 11 -55 13 -70 4z"/>
<path d="M5777 3458 c11 -13 35 -45 53 -73 18 -27 34 -52 36 -53 5 -7 253 42
249 49 -3 4 -21 10 -40 13 -20 4 -91 25 -159 47 -68 21 -132 39 -142 39 -16 0
-16 -2 3 -22z"/>
<path d="M1454 3409 c-9 -15 12 -33 30 -26 9 4 16 13 16 22 0 17 -35 21 -46 4z"/>
<path d="M2330 3259 c-206 -101 -244 -124 -234 -141 3 -5 -5 -17 -18 -28 -41
-35 130 48 252 123 131 79 220 137 220 143 0 10 -27 -2 -220 -97z"/>
<path d="M6346 3228 c45 -46 91 -96 104 -110 19 -23 33 -27 99 -33 42 -4 85
-9 95 -12 12 -3 -13 31 -60 85 -52 60 -86 91 -101 91 -18 1 -142 37 -202 59
-9 3 20 -33 65 -80z"/>
<path d="M2024 3054 c-18 -14 -18 -15 4 -4 12 6 22 13 22 15 0 8 -5 6 -26 -11z"/>
<path d="M1600 2830 c-9 -6 -10 -10 -3 -10 6 0 15 5 18 10 8 12 4 12 -15 0z"/>
<path d="M3591 2714 c-38 -49 -18 -94 33 -74 34 13 41 32 24 66 -18 38 -32 40
-57 8z"/>
<path d="M1675 2571 l-210 -78 -42 -78 c-24 -43 -43 -80 -43 -82 0 -6 214 -3
268 4 53 6 53 7 82 62 25 49 85 138 150 224 12 15 18 27 13 26 -4 0 -102 -35
-218 -78z"/>
<path d="M4747 2569 c-26 -39 -44 -76 -40 -82 13 -22 146 -181 224 -267 42
-47 147 -170 234 -275 87 -104 161 -191 165 -193 5 -2 107 52 139 74 1 2 -97
123 -220 271 -122 147 -241 291 -263 318 -41 50 -159 190 -180 212 -9 10 -22
-4 -59 -58z"/>
<path d="M5120 2496 c0 -24 26 -38 40 -22 6 9 9 20 5 26 -9 15 -45 12 -45 -4z"/>
<path d="M3418 2465 c-64 -10 -67 -12 -102 -60 -65 -91 -65 -85 8 -85 l65 0
51 77 c28 42 49 77 48 77 -2 1 -33 -3 -70 -9z"/>
<path d="M5252 2386 c-9 -21 -8 -27 14 -41 24 -16 27 -15 40 2 17 22 17 36 2
51 -19 19 -44 14 -56 -12z"/>
<path d="M3095 2313 c-11 -3 -33 -17 -48 -31 -25 -24 -26 -27 -10 -34 40 -15
62 -8 93 32 31 39 31 40 8 39 -12 -1 -32 -3 -43 -6z"/>
<path d="M1404 2192 c-33 -11 -58 -35 -295 -287 -125 -132 -241 -253 -259
-270 -17 -16 -55 -57 -83 -90 l-52 -60 50 45 c269 243 704 654 699 661 -6 10
-29 10 -60 1z"/>
<path d="M4342 2110 c-28 -34 -52 -65 -52 -68 1 -4 22 -31 49 -60 l48 -54 51
62 c29 34 52 66 52 70 0 5 -21 32 -48 60 l-47 52 -53 -62z"/>
<path d="M3287 2034 c-31 -35 -37 -47 -27 -59 10 -12 16 -11 42 3 17 10 36 25
41 33 10 17 2 69 -11 69 -4 -1 -24 -21 -45 -46z"/>
<path d="M2933 2021 c-37 -44 -212 -309 -237 -359 -33 -65 -8 -42 61 55 90
126 212 309 220 328 10 27 -12 15 -44 -24z"/>
<path d="M5852 2026 c-29 -8 -55 -16 -58 -19 -4 -3 -1 -29 6 -56 l12 -51 70 0
70 0 -7 43 c-16 110 -9 103 -93 83z"/>
<path d="M2592 1878 c-17 -17 -15 -67 3 -75 19 -7 55 24 55 47 0 18 -19 40
-35 40 -6 0 -16 -5 -23 -12z"/>
<path d="M4203 1853 c-11 -16 -53 -70 -92 -122 -70 -91 -71 -94 -53 -111 23
-22 32 -163 33 -554 0 -144 2 -256 5 -251 17 45 143 963 144 1053 0 20 -15 14
-37 -15z"/>
<path d="M6350 1835 c-18 -21 -5 -47 22 -43 26 3 37 36 16 49 -18 12 -24 11
-38 -6z"/>
<path d="M5667 1504 c-12 -13 -8 -52 7 -57 21 -8 49 16 44 39 -3 19 -38 31
-51 18z"/>
<path d="M963 1404 c-7 -19 11 -39 26 -30 16 10 13 33 -4 40 -9 3 -18 -1 -22
-10z"/>
<path d="M1987 1183 c-11 -10 -8 -41 4 -49 16 -9 43 21 36 40 -7 16 -28 21
-40 9z"/>
<path d="M3666 1177 c-38 -27 2 -95 42 -71 24 16 28 55 6 71 -10 7 -21 13 -24
13 -3 0 -14 -6 -24 -13z"/>
<path d="M2340 1110 c0 -5 7 -7 15 -4 8 4 15 8 15 10 0 2 -7 4 -15 4 -8 0 -15
-4 -15 -10z"/>
</g>
</svg>
